<?xml version="1.0" encoding="utf-8"?>
<!-- Generator: Adobe Illustrator 25.4.1, SVG Export Plug-In . SVG Version: 6.00 Build 0)  -->
<svg version="1.1" id="Layer_1" xmlns="http://www.w3.org/2000/svg" xmlns:xlink="http://www.w3.org/1999/xlink" x="0px"
     y="0px"
     viewBox="0 0 192 192" style="enable-background:new 0 0 192 192;" xml:space="preserve">
<style type="text/css">
	.st0{fill:#282D4A;}
	.st1{fill:#FFFFFF;stroke:#282D4A;stroke-width:3.8274;stroke-miterlimit:10;}
	.st2{fill:#FAB31C;}
	.st3{fill:none;stroke:url(#SVGID_1_);stroke-width:0.3345;stroke-miterlimit:10;}
</style>
    <rect class="st0" width="192" height="192"/>
    <g>
	<g>
		<path class="st1" d="M148.91,159.92V61.51c-5.94,10.07-13.29,18.31-21.36,25.06v73.35H148.91z"/>
        <path class="st1" d="M119.31,159.92V92.8c-6.9,4.71-14.14,8.51-21.36,11.56v55.57H119.31z"/>
        <path class="st1" d="M89.71,159.92v-52.39c-7.43,2.61-14.68,4.5-21.36,5.86v46.53H89.71z"/>
        <path class="st1" d="M60.11,159.92v-45.06c-9.35,1.45-16.95,1.87-21.36,1.99v43.07H60.11z"/>
        <path class="st2" d="M137.15,24.31l-10.96,19.83h4.67c-20.36,49.68-92.11,51.99-92.11,51.99v10.99c0,0,84.75-3.94,105.13-62.98
			h4.23L137.15,24.31z"/>
	</g>
        <linearGradient id="SVGID_1_" gradientUnits="userSpaceOnUse" x1="81.1417" y1="69.4537" x2="81.1417"
                        y2="69.4537">
		<stop offset="0" style="stop-color:#32AB8B"/>
            <stop offset="1" style="stop-color:#31AB8B"/>
	</linearGradient>
        <path class="st3" d="M81.14,69.45"/>
</g>
</svg>
